<svg width="109" height="58" viewBox="0 0 109 58" fill="none" xmlns="http://www.w3.org/2000/svg">
<path d="M62.8726 1.02091L66.9338 57.0307L40.962 45.0543L66.9975 30.0678L41.0183 21.2246L62.8726 1.02091Z" fill="#00E609"/>
<path d="M14.098 25.5469H10.9872C10.9304 25.1444 10.8144 24.7869 10.6392 24.4744C10.464 24.1572 10.2391 23.8873 9.96449 23.6648C9.68987 23.4422 9.37263 23.2718 9.01278 23.1534C8.65767 23.035 8.27178 22.9759 7.85511 22.9759C7.10227 22.9759 6.4465 23.1629 5.88778 23.5369C5.32907 23.9062 4.89583 24.446 4.58807 25.1562C4.2803 25.8617 4.12642 26.7187 4.12642 27.7273C4.12642 28.7642 4.2803 29.6354 4.58807 30.3409C4.90057 31.0464 5.33617 31.5791 5.89489 31.9389C6.4536 32.2988 7.09991 32.4787 7.83381 32.4787C8.24574 32.4787 8.62689 32.4242 8.97727 32.3153C9.33239 32.2064 9.64725 32.0478 9.92188 31.8395C10.1965 31.6264 10.4238 31.3684 10.6037 31.0653C10.7884 30.7623 10.9162 30.4167 10.9872 30.0284L14.098 30.0426C14.0175 30.7102 13.8163 31.3542 13.4943 31.9744C13.1771 32.59 12.7486 33.1416 12.2088 33.6293C11.6738 34.1122 11.0346 34.4957 10.2912 34.7798C9.55256 35.0592 8.71686 35.1989 7.78409 35.1989C6.48674 35.1989 5.3267 34.9053 4.30398 34.3182C3.28598 33.7311 2.48106 32.8812 1.8892 31.7685C1.30208 30.6558 1.00852 29.3087 1.00852 27.7273C1.00852 26.1411 1.30682 24.7917 1.90341 23.679C2.5 22.5663 3.30966 21.7187 4.33239 21.1364C5.35511 20.5492 6.50568 20.2557 7.78409 20.2557C8.62689 20.2557 9.40814 20.3741 10.1278 20.6108C10.8523 20.8475 11.4938 21.1932 12.0526 21.6477C12.6113 22.0975 13.0658 22.6491 13.4162 23.3026C13.7713 23.956 13.9986 24.7041 14.098 25.5469ZM21.1754 35.2131C20.0722 35.2131 19.1181 34.9787 18.3132 34.5099C17.513 34.0365 16.8951 33.3783 16.4595 32.5355C16.0239 31.688 15.8061 30.7055 15.8061 29.5881C15.8061 28.4612 16.0239 27.4763 16.4595 26.6335C16.8951 25.786 17.513 25.1278 18.3132 24.6591C19.1181 24.1856 20.0722 23.9489 21.1754 23.9489C22.2786 23.9489 23.2304 24.1856 24.0305 24.6591C24.8355 25.1278 25.4557 25.786 25.8913 26.6335C26.3269 27.4763 26.5447 28.4612 26.5447 29.5881C26.5447 30.7055 26.3269 31.688 25.8913 32.5355C25.4557 33.3783 24.8355 34.0365 24.0305 34.5099C23.2304 34.9787 22.2786 35.2131 21.1754 35.2131ZM21.1896 32.8693C21.6915 32.8693 22.1106 32.7273 22.4467 32.4432C22.7829 32.1544 23.0362 31.7614 23.2067 31.2642C23.3819 30.767 23.4695 30.2012 23.4695 29.5668C23.4695 28.9323 23.3819 28.3665 23.2067 27.8693C23.0362 27.3722 22.7829 26.9792 22.4467 26.6903C22.1106 26.4015 21.6915 26.2571 21.1896 26.2571C20.683 26.2571 20.2569 26.4015 19.9112 26.6903C19.5703 26.9792 19.3123 27.3722 19.1371 27.8693C18.9666 28.3665 18.8814 28.9323 18.8814 29.5668C18.8814 30.2012 18.9666 30.767 19.1371 31.2642C19.3123 31.7614 19.5703 32.1544 19.9112 32.4432C20.2569 32.7273 20.683 32.8693 21.1896 32.8693ZM28.5121 35V24.0909H31.3956V26.0156H31.5234C31.7507 25.3764 32.1295 24.8722 32.6598 24.5028C33.1901 24.1335 33.8246 23.9489 34.5632 23.9489C35.3113 23.9489 35.9482 24.1359 36.4737 24.5099C36.9993 24.8793 37.3497 25.3812 37.5249 26.0156H37.6385C37.861 25.3906 38.2635 24.8911 38.8459 24.517C39.433 24.1383 40.1267 23.9489 40.9268 23.9489C41.9448 23.9489 42.7711 24.2732 43.4055 24.9219C44.0447 25.5658 44.3643 26.4796 44.3643 27.6634V35H41.3459V28.2599C41.3459 27.6539 41.1849 27.1993 40.8629 26.8963C40.541 26.5933 40.1385 26.4418 39.6555 26.4418C39.1063 26.4418 38.6778 26.617 38.37 26.9673C38.0623 27.313 37.9084 27.7699 37.9084 28.3381V35H34.9751V28.196C34.9751 27.661 34.8213 27.2348 34.5135 26.9176C34.2105 26.6004 33.8104 26.4418 33.3132 26.4418C32.977 26.4418 32.674 26.527 32.4041 26.6974C32.139 26.8632 31.9283 27.0975 31.772 27.4006C31.6158 27.6989 31.5376 28.0492 31.5376 28.4517V35H28.5121ZM52.6207 24.0909V26.3636H45.8878V24.0909H52.6207ZM47.429 35V23.3026C47.429 22.5118 47.5829 21.8561 47.8906 21.3352C48.2031 20.8144 48.6293 20.4238 49.169 20.1634C49.7088 19.9029 50.322 19.7727 51.0085 19.7727C51.4725 19.7727 51.8963 19.8082 52.2798 19.8793C52.6681 19.9503 52.9569 20.0142 53.1463 20.071L52.6065 22.3438C52.4882 22.3059 52.3414 22.2704 52.1662 22.2372C51.9957 22.2041 51.8205 22.1875 51.6406 22.1875C51.1955 22.1875 50.8854 22.2917 50.7102 22.5C50.535 22.7036 50.4474 22.9901 50.4474 23.3594V35H47.429ZM56.337 39.0909C55.9535 39.0909 55.5936 39.0601 55.2575 38.9986C54.926 38.9418 54.6514 38.8684 54.4336 38.7784L55.1154 36.5199C55.4705 36.6288 55.7901 36.688 56.0742 36.6974C56.363 36.7069 56.6116 36.6406 56.82 36.4986C57.033 36.3565 57.2058 36.1151 57.3384 35.7741L57.516 35.3125L53.6026 24.0909H56.7844L59.043 32.1023H59.1566L61.4364 24.0909H64.6396L60.3995 36.179C60.1959 36.7661 59.9189 37.2775 59.5685 37.7131C59.2229 38.1534 58.7849 38.492 58.2546 38.7287C57.7243 38.9702 57.0851 39.0909 56.337 39.0909Z" fill="#FFFDFD"/>
<path d="M66.2447 35V20.4545H71.9833C73.0818 20.4545 74.0193 20.651 74.7958 21.044C75.5771 21.4323 76.1713 21.9839 76.5785 22.6989C76.9904 23.4091 77.1964 24.2448 77.1964 25.206C77.1964 26.1719 76.988 27.0028 76.5714 27.6989C76.1547 28.3902 75.551 28.9205 74.7603 29.2898C73.9743 29.6591 73.0226 29.8438 71.9052 29.8438H68.0629V27.3722H71.408C71.9951 27.3722 72.4828 27.2917 72.8711 27.1307C73.2594 26.9697 73.5482 26.7282 73.7376 26.4062C73.9317 26.0843 74.0288 25.6842 74.0288 25.206C74.0288 24.723 73.9317 24.3158 73.7376 23.9844C73.5482 23.6529 73.257 23.402 72.864 23.2315C72.4757 23.0563 71.9857 22.9688 71.3938 22.9688H69.32V35H66.2447ZM74.0998 28.3807L77.7148 35H74.32L70.783 28.3807H74.0998ZM79.3129 35V24.0909H82.3384V35H79.3129ZM80.8327 22.6847C80.3829 22.6847 79.997 22.5355 79.6751 22.2372C79.3578 21.9342 79.1992 21.572 79.1992 21.1506C79.1992 20.7339 79.3578 20.3764 79.6751 20.0781C79.997 19.7751 80.3829 19.6236 80.8327 19.6236C81.2826 19.6236 81.6661 19.7751 81.9833 20.0781C82.3053 20.3764 82.4663 20.7339 82.4663 21.1506C82.4663 21.572 82.3053 21.9342 81.9833 22.2372C81.6661 22.5355 81.2826 22.6847 80.8327 22.6847ZM88.782 35.1776C87.9534 35.1776 87.2029 34.9645 86.5305 34.5384C85.8629 34.1075 85.3326 33.4754 84.9396 32.642C84.5514 31.804 84.3572 30.7765 84.3572 29.5597C84.3572 28.3097 84.5585 27.2704 84.9609 26.4418C85.3634 25.6084 85.8984 24.9858 86.5661 24.5739C87.2384 24.1572 87.9747 23.9489 88.7749 23.9489C89.3857 23.9489 89.8946 24.053 90.3018 24.2614C90.7138 24.465 91.0452 24.7206 91.2962 25.0284C91.5518 25.3314 91.746 25.6297 91.8786 25.9233H91.9709V20.4545H94.9893V35H92.0064V33.2528H91.8786C91.7365 33.5559 91.5353 33.8565 91.2749 34.1548C91.0192 34.4484 90.6854 34.6922 90.2734 34.8864C89.8662 35.0805 89.3691 35.1776 88.782 35.1776ZM89.7408 32.7699C90.2285 32.7699 90.6404 32.6373 90.9766 32.3722C91.3175 32.1023 91.5779 31.7259 91.7578 31.2429C91.9425 30.7599 92.0348 30.1941 92.0348 29.5455C92.0348 28.8968 91.9448 28.3333 91.7649 27.8551C91.585 27.3769 91.3246 27.0076 90.9837 26.7472C90.6428 26.4867 90.2285 26.3565 89.7408 26.3565C89.2436 26.3565 88.8246 26.4915 88.4837 26.7614C88.1428 27.0312 87.8847 27.4053 87.7095 27.8835C87.5343 28.3617 87.4467 28.9157 87.4467 29.5455C87.4467 30.1799 87.5343 30.741 87.7095 31.2287C87.8894 31.7116 88.1475 32.0904 88.4837 32.3651C88.8246 32.6349 89.2436 32.7699 89.7408 32.7699ZM102.449 35.2131C101.326 35.2131 100.36 34.9858 99.5508 34.5312C98.7459 34.072 98.1256 33.4233 97.69 32.5852C97.2544 31.7424 97.0366 30.7457 97.0366 29.5952C97.0366 28.473 97.2544 27.4882 97.69 26.6406C98.1256 25.7931 98.7388 25.1326 99.5295 24.6591C100.325 24.1856 101.258 23.9489 102.328 23.9489C103.047 23.9489 103.717 24.0649 104.338 24.2969C104.963 24.5241 105.507 24.8674 105.971 25.3267C106.44 25.786 106.805 26.3636 107.065 27.0597C107.325 27.7509 107.456 28.5606 107.456 29.4886V30.3196H98.244V28.4446H104.608C104.608 28.009 104.513 27.6231 104.324 27.2869C104.134 26.9508 103.871 26.688 103.535 26.4986C103.204 26.3045 102.818 26.2074 102.377 26.2074C101.918 26.2074 101.511 26.3139 101.156 26.527C100.806 26.7353 100.531 27.017 100.332 27.3722C100.133 27.7225 100.031 28.1132 100.027 28.544V30.3267C100.027 30.8665 100.126 31.3329 100.325 31.7259C100.529 32.1188 100.815 32.4219 101.184 32.6349C101.554 32.848 101.992 32.9545 102.498 32.9545C102.834 32.9545 103.142 32.9072 103.422 32.8125C103.701 32.7178 103.94 32.5758 104.139 32.3864C104.338 32.197 104.489 31.965 104.593 31.6903L107.392 31.875C107.25 32.5473 106.958 33.1345 106.518 33.6364C106.083 34.1335 105.519 34.5218 104.828 34.8011C104.141 35.0758 103.348 35.2131 102.449 35.2131Z" fill="#00E609"/>
</svg>
