<svg width="42" height="42" viewBox="0 0 42 42" fill="none" xmlns="http://www.w3.org/2000/svg">
<path d="M0 7C0 3.13401 3.13401 0 7 0H35C38.866 0 42 3.13401 42 7V35C42 38.866 38.866 42 35 42H7C3.13401 42 0 38.866 0 35V7Z" fill="#0ABF11"/>
<path d="M22.0607 11.9393C21.4749 11.3536 20.5251 11.3536 19.9393 11.9393L10.3934 21.4853C9.80761 22.0711 9.80761 23.0208 10.3934 23.6066C10.9792 24.1924 11.9289 24.1924 12.5147 23.6066L21 15.1213L29.4853 23.6066C30.0711 24.1924 31.0208 24.1924 31.6066 23.6066C32.1924 23.0208 32.1924 22.0711 31.6066 21.4853L22.0607 11.9393ZM22.5 30L22.5 13L19.5 13L19.5 30L22.5 30Z" fill="#FFFBFB"/>
</svg>
