<svg xmlns="http://www.w3.org/2000/svg" xmlns:xlink="http://www.w3.org/1999/xlink" width="54" height="54" viewBox="0 0 54 54">
    <defs>
        <filter id="prefix__a" width="157.5%" height="157.5%" x="-28.8%" y="-23.8%" filterUnits="objectBoundingBox">
            <feOffset dy="2" in="SourceAlpha" result="shadowOffsetOuter1"/>
            <feGaussianBlur in="shadowOffsetOuter1" result="shadowBlurOuter1" stdDeviation="3.5"/>
            <feColorMatrix in="shadowBlurOuter1" values="0 0 0 0 0 0 0 0 0 0 0 0 0 0 0 0 0 0 0.2 0"/>
        </filter>
        <path id="prefix__b" d="M5 0h30c2.761 0 5 2.239 5 5v30c0 2.761-2.239 5-5 5H5c-2.761 0-5-2.239-5-5V5c0-2.761 2.239-5 5-5z"/>
    </defs>
    <g fill="none" fill-rule="evenodd" transform="translate(7 5)">
        <use fill="#000" filter="url(#prefix__a)" xlink:href="#prefix__b"/>
        <use fill="#00e069" xlink:href="#prefix__b"/>
        <g fill="#FFF" fill-rule="nonzero">
            <path d="M1.986 8.74V6.355c.22 0 .397-.178.397-.397 0-.22-.178-.398-.397-.398C.891 5.561 0 6.453 0 7.548v.794C0 9 .535 9.534 1.192 9.534h.794c.22 0 .397-.178.397-.397 0-.22-.178-.398-.397-.398zM17.081 5.561c-.219 0-.397.178-.397.398 0 .219.178.397.397.397v2.383c-.219 0-.397.178-.397.398 0 .219.178.397.397.397h.795c.657 0 1.192-.535 1.192-1.192v-.794c0-1.095-.891-1.987-1.987-1.987zM6.753 16.684c-.22 0-.397.178-.397.397H3.972c0-.219-.178-.397-.397-.397-.22 0-.397.178-.397.397v.795c0 .657.535 1.192 1.192 1.192h1.589c.657 0 1.191-.535 1.191-1.192v-.795c0-.219-.178-.397-.397-.397zM15.492 16.684c-.219 0-.397.178-.397.397h-2.383c0-.219-.178-.397-.398-.397-.219 0-.397.178-.397.397v.795c0 .657.535 1.192 1.192 1.192h1.589c.657 0 1.192-.535 1.192-1.192v-.795c0-.219-.178-.397-.398-.397z" transform="translate(10 10)"/>
            <path d="M15.492 0H3.575C2.48 0 1.59.891 1.59 1.986v13.506c0 1.095.89 1.987 1.986 1.987h11.917c1.096 0 1.987-.892 1.987-1.987V1.986C17.479.891 16.588 0 15.492 0zM5.164 1.589h8.74c.657 0 1.191.535 1.191 1.192 0 .657-.534 1.191-1.192 1.191H5.164c-.657 0-1.192-.534-1.192-1.191s.535-1.192 1.192-1.192zm0 13.506c-.657 0-1.192-.535-1.192-1.192 0-.657.535-1.191 1.192-1.191.657 0 1.192.534 1.192 1.191s-.535 1.192-1.192 1.192zm8.74 0c-.658 0-1.192-.535-1.192-1.192 0-.657.534-1.191 1.191-1.191s1.192.534 1.192 1.191-.535 1.192-1.192 1.192zm1.986-5.164c0 .657-.535 1.192-1.192 1.192H4.37c-.657 0-1.192-.535-1.192-1.192V5.959c0-.657.535-1.192 1.192-1.192h10.328c.657 0 1.192.535 1.192 1.192V9.93z" transform="translate(10 10)"/>
        </g>
    </g>
</svg>
